<?xml version="1.0" encoding="UTF-8" standalone="no"?>
<!-- Created with Inkscape (http://www.inkscape.org/) -->

<svg
   xmlns:dc="http://purl.org/dc/elements/1.1/"
   xmlns:cc="http://creativecommons.org/ns#"
   xmlns:rdf="http://www.w3.org/1999/02/22-rdf-syntax-ns#"
   xmlns:svg="http://www.w3.org/2000/svg"
   xmlns="http://www.w3.org/2000/svg"
   xmlns:sodipodi="http://sodipodi.sourceforge.net/DTD/sodipodi-0.dtd"
   xmlns:inkscape="http://www.inkscape.org/namespaces/inkscape"
   width="210mm"
   height="297mm"
   id="svg2"
   version="1.1"
   inkscape:version="0.48.0 r9654"
   sodipodi:docname="Neues Dokument 1">
  <defs
     id="defs4" />
  <sodipodi:namedview
     id="base"
     pagecolor="#ffffff"
     bordercolor="#666666"
     borderopacity="1.0"
     inkscape:pageopacity="0.0"
     inkscape:pageshadow="2"
     inkscape:zoom="0.50266021"
     inkscape:cx="569.97365"
     inkscape:cy="597.04678"
     inkscape:document-units="px"
     inkscape:current-layer="layer1"
     showgrid="false"
     inkscape:window-width="1680"
     inkscape:window-height="993"
     inkscape:window-x="0"
     inkscape:window-y="24"
     inkscape:window-maximized="1" />
  <metadata
     id="metadata7">
    <rdf:RDF>
      <cc:Work
         rdf:about="">
        <dc:format>image/svg+xml</dc:format>
        <dc:type
           rdf:resource="http://purl.org/dc/dcmitype/StillImage" />
        <dc:title></dc:title>
      </cc:Work>
    </rdf:RDF>
  </metadata>
  <g
     inkscape:label="Ebene 1"
     inkscape:groupmode="layer"
     id="layer1">
    <path
       style="fill:#000000"
       d="m 1111.7394,290.97338 c -12.0945,-4.00995 -22.0388,-7.66097 -51.5,-18.90805 -54.1386,-20.66791 -82.42428,-28.37944 -114.37358,-31.18163 -9.6868,-0.84962 -27.566,-0.84962 -37.2528,0 -31.9493,2.80219 -60.235,10.51372 -114.3736,31.18163 -51.17989,19.53838 -69.5034,25.49545 -93.5,30.39731 -19.97404,4.08016 -32.50767,5.37381 -52,5.36713 -19.17348,-0.007 -33.30869,-1.52358 -52.70281,-5.65616 -23.79518,-5.07038 -41.9827,-10.98287 -89.29719,-29.02917 -43.49873,-16.59091 -60.78386,-22.19063 -83.87786,-27.17321 -18.61279,-4.01575 -34.1696,-5.74903 -51.59955,-5.74903 -17.98055,0 -32.47837,1.57434 -51.28493,5.56909 -23.48553,4.98864 -39.80269,10.25686 -85.20512,27.50966 -29.3939,11.16961 -43.1912,16.11826 -57.41349,20.59239 -50.62893,15.92716 -95.009859,18.22955 -142.119049,7.37283 -22.11876,-5.09746 -41.3861901,-11.52825 -87.97963,-29.36452 -42.75908,-16.36845 -68.540801,-24.2477 -92.037851,-28.12804 -7.47945,-1.23517 -9.94049,-1.83132 -9.95854,-2.41232 -0.029,-0.93205 0.7509,-0.85116 13.68162,1.41913 23.50966,4.12767 48.402041,11.80291 90.314771,27.84737 25.6448,9.81699 38.58428,14.58741 49.87737992,18.38836 59.69196008,20.09067 102.71603908,22.64397 156.22708908,9.27141 18.64069,-4.65835 36.53564,-10.7292 77.4077,-26.26047 45.40243,-17.2528 61.71959,-22.52102 85.20512,-27.50966 19.43399,-4.12803 33.22203,-5.56909 53.28493,-5.56909 19.5688,0 34.25336,1.57505 53.59955,5.74903 23.094,4.98258 40.37913,10.5823 83.87786,27.17321 47.31449,18.04629 65.50201,23.95878 89.29719,29.02917 18.61001,3.96551 33.56255,5.62699 50.70281,5.63393 28.55744,0.0116 56.75097,-5.14727 92,-16.83415 12.09449,-4.00996 22.03879,-7.66097 51.5,-18.90805 54.1386,-20.66792 82.4243,-28.37944 114.3736,-31.18164 9.9513,-0.87281 31.3015,-0.87281 41.2528,0 31.9493,2.8022 60.23498,10.51372 114.37358,31.18164 29.4612,11.24708 39.4055,14.89809 51.5,18.90805 1.9399,0.97775 -1.0571,1.57971 -2,1.27385 z M 94.508451,307.45837 c -0.67703,-0.11631 -2.02703,-0.12339 -3,-0.0157 -0.97297,0.10766 -0.41903,0.20282 1.23097,0.21148 1.65,0.009 2.44606,-0.0794 1.76903,-0.19575 z m 555.999999,0 c -0.67703,-0.11631 -2.02703,-0.12339 -3,-0.0157 -0.97297,0.10766 -0.41903,0.20282 1.23097,0.21148 1.65,0.009 2.44606,-0.0794 1.76903,-0.19575 z m -564.005279,-0.445 c -1.22994,-0.10078 -3.47994,-0.1034 -5,-0.006 -1.52006,0.0976 -0.51375,0.18006 2.23625,0.18325 2.75,0.003 3.99369,-0.0767 2.76375,-0.17746 z m 17.999999,0 c -1.22994,-0.10078 -3.47994,-0.1034 -4.999999,-0.006 -1.52006,0.0976 -0.51375,0.18006 2.236249,0.18325 2.75,0.003 3.99369,-0.0767 2.76375,-0.17746 z m 538,0 c -1.22994,-0.10078 -3.47994,-0.1034 -5,-0.006 -1.52006,0.0976 -0.51375,0.18006 2.23625,0.18325 2.75,0.003 3.99369,-0.0767 2.76375,-0.17746 z m 18,0 c -1.22994,-0.10078 -3.47994,-0.1034 -5,-0.006 -1.52006,0.0976 -0.51375,0.18006 2.23625,0.18325 2.75,0.003 3.99369,-0.0767 2.76375,-0.17746 z M 76.489421,306.60644 c -0.6875,-0.1178 -1.8125,-0.1178 -2.5,0 -0.6875,0.11779 -0.125,0.21417 1.25,0.21417 1.375,0 1.9375,-0.0964 1.25,-0.21417 z m 34.999999,0 c -0.6875,-0.1178 -1.8125,-0.1178 -2.5,0 -0.6875,0.11779 -0.125,0.21417 1.25,0.21417 1.375,0 1.9375,-0.0964 1.25,-0.21417 z m 521.47917,0.0247 c -0.33229,-0.1411 -1.1948,-0.15618 -1.91667,-0.0335 -0.79773,0.13554 -0.56078,0.23616 0.60417,0.25654 1.05416,0.0184 1.64479,-0.0819 1.3125,-0.22302 z m 34.52083,-0.0247 c -0.6875,-0.1178 -1.8125,-0.1178 -2.5,0 -0.6875,0.11779 -0.125,0.21417 1.25,0.21417 1.375,0 1.9375,-0.0964 1.25,-0.21417 z m -39.52083,-0.39995 c -0.33229,-0.1411 -1.1948,-0.15618 -1.91667,-0.0335 -0.79773,0.13554 -0.56078,0.23616 0.60417,0.25653 1.05416,0.0184 1.64479,-0.0819 1.3125,-0.22301 z M 2.2394209,291.01637 c 0,-0.0882 -0.7875,-0.42256 -1.74999998,-0.74309 -1.58606002,-0.52817 -1.62143002,-0.51315 -0.37756,0.16032 1.30636998,0.70732 2.12755998,0.93225 2.12755998,0.58277 z M 557.23942,290.59175 c 0,-0.0882 -0.7875,-0.42256 -1.75,-0.74309 -1.58606,-0.52817 -1.62143,-0.51315 -0.37756,0.16032 1.30637,0.70731 2.12756,0.93225 2.12756,0.58277 z m 187.12756,-1.00739 c 1.24387,-0.67347 1.2085,-0.68849 -0.37756,-0.16032 -0.9625,0.32053 -1.75,0.65492 -1.75,0.74309 0,0.34948 0.82119,0.12454 2.12756,-0.58277 z m -555,-0.42462 c 1.24387,-0.67347 1.2085,-0.68849 -0.37756,-0.16032 -1.66575,0.55471 -2.19548,0.90341 -1.37244,0.90341 0.20765,0 0.99515,-0.33439 1.75,-0.74309 z m -192.1275591,0.15815 c 0,-0.0882 -0.7875,-0.42256 -1.75,-0.74309 -1.58606,-0.52817 -1.62143,-0.51315 -0.37756,0.16032 1.30637,0.70731 2.12756,0.93225 2.12756,0.58277 z M 552.23942,288.89327 c 0,-0.0882 -0.7875,-0.42257 -1.75,-0.74309 -1.58606,-0.52817 -1.62143,-0.51315 -0.37756,0.16032 1.30637,0.70731 2.12756,0.93225 2.12756,0.58277 z m 197.12756,-1.00739 c 1.24387,-0.67348 1.2085,-0.68849 -0.37756,-0.16032 -0.9625,0.32052 -1.75,0.65491 -1.75,0.74309 0,0.34948 0.82119,0.12454 2.12756,-0.58277 z M 194.73942,287.3551 c 0.99549,-0.46708 1.58498,-0.84924 1.30998,-0.84924 -0.275,0 -1.31449,0.38216 -2.30998,0.84924 -0.99549,0.46709 -1.58498,0.84924 -1.30998,0.84924 0.275,0 1.31449,-0.38215 2.30998,-0.84924 z m -202.4999991,0.2643 c 0,-0.0882 -0.7875,-0.42256 -1.75,-0.74308 -1.5860599,-0.52818 -1.6214299,-0.51316 -0.37756,0.16032 1.30637,0.70731 2.12756,0.93224 2.12756,0.58276 z M 547.23942,287.2086 c 0,-0.0806 -1.0125,-0.5105 -2.25,-0.95539 l -2.25,-0.8089 1.90499,0.9554 c 1.79022,0.89783 2.59501,1.1487 2.59501,0.80889 z m 207.5,-1.12736 c 0.99549,-0.46708 1.58498,-0.84924 1.30998,-0.84924 -0.275,0 -1.31449,0.38216 -2.30998,0.84924 -0.99549,0.46708 -1.58498,0.84924 -1.30998,0.84924 0.275,0 1.31449,-0.38216 2.30998,-0.84924 z m -767.499999,-0.13829 c 0,-0.0761 -1.2375,-0.60153 -2.75,-1.16771 l -2.75,-1.02941 2.42431,1.1677 c 2.26589,1.0914 3.07569,1.36244 3.07569,1.02942 z M 200.73942,285.232 c 0.99549,-0.46708 1.58498,-0.84924 1.30998,-0.84924 -0.275,0 -1.31449,0.38216 -2.30998,0.84924 -0.99549,0.46708 -1.58498,0.84924 -1.30998,0.84924 0.275,0 1.31449,-0.38216 2.30998,-0.84924 z m 340.5,-0.1383 c 0,-0.0761 -1.2375,-0.60152 -2.75,-1.1677 l -2.75,-1.02941 2.42431,1.1677 c 2.26589,1.0914 3.07569,1.36244 3.07569,1.02941 z m 220.56291,-1.66634 2.93709,-1.38002 -3.25,1.24715 c -3.02946,1.16252 -3.70965,1.51289 -2.93709,1.51289 0.1721,0 1.6346,-0.62101 3.25,-1.38002 z m -554,-0.84924 2.93709,-1.38002 -3.25,1.24715 c -3.02946,1.16252 -3.70965,1.51289 -2.93709,1.51289 0.1721,0 1.6346,-0.62101 3.25,-1.38002 z m -227.562909,0.82253 c 0,-0.0731 -1.4625,-0.69409 -3.25,-1.38002 l -3.25,-1.24715 2.93709,1.38002 c 2.73778,1.28637 3.56291,1.57519 3.56291,1.24715 z m 553.999999,-0.84924 c 0,-0.0731 -1.4625,-0.69409 -3.25,-1.38002 l -3.25,-1.24715 2.93709,1.38002 c 2.73778,1.28637 3.56291,1.57519 3.56291,1.24715 z m 235.56291,-2.09639 2.93709,-1.38002 -3.25,1.24715 c -1.7875,0.68593 -3.25,1.30694 -3.25,1.38002 0,0.32804 0.82513,0.0392 3.56291,-1.24715 z m -553.56291,-0.9554 c 1.86578,-0.8174 3.16733,-1.48617 2.89233,-1.48617 -0.275,0 -2.02655,0.66877 -3.89233,1.48617 -1.86578,0.81739 -3.16733,1.48617 -2.89233,1.48617 0.275,0 2.02655,-0.66878 3.89233,-1.48617 z m -243.999999,0.93254 c 0,-0.071 -1.6875,-0.78751 -3.75,-1.59233 l -3.75,-1.46331 3.44617,1.59232 c 3.20761,1.48211 4.05383,1.78757 4.05383,1.46332 z M 526.23942,279.5858 c 0,-0.0694 -1.9125,-0.88147 -4.25,-1.80464 l -4.25,-1.67851 3.95295,1.80464 c 3.6762,1.6783 4.54705,1.99977 4.54705,1.67851 z m 252.5,-2.42159 c 2.14824,-0.93417 3.6809,-1.69849 3.4059,-1.69849 -0.275,0 -2.25766,0.76432 -4.4059,1.69849 -2.14824,0.93416 -3.6809,1.69848 -3.4059,1.69848 0.275,0 2.25766,-0.76432 4.4059,-1.69848 z m -553,-1.27387 c 2.14824,-0.93416 3.6809,-1.69848 3.4059,-1.69848 -0.275,0 -2.25766,0.76432 -4.4059,1.69848 -2.14824,0.93417 -3.6809,1.69849 -3.4059,1.69849 0.275,0 2.25766,-0.76432 4.4059,-1.69849 z m -262.499999,1.14773 c 0,-0.0694 -1.9125,-0.88146 -4.25,-1.80464 l -4.25,-1.6785 3.95295,1.80464 c 3.6762,1.67829 4.54705,1.99976 4.54705,1.6785 z m 552.999999,-1.27386 c 0,-0.0694 -1.9125,-0.88146 -4.25,-1.80464 l -4.25,-1.6785 3.95295,1.80464 c 3.6762,1.67829 4.54705,1.99976 4.54705,1.6785 z m 272.5,-2.42159 c 2.14824,-0.93417 3.6809,-1.69848 3.4059,-1.69848 -0.275,0 -2.25766,0.76431 -4.4059,1.69848 -2.14824,0.93416 -3.6809,1.69848 -3.4059,1.69848 0.275,0 2.25766,-0.76432 4.4059,-1.69848 z m -553,-1.27386 c 2.14824,-0.93417 3.6809,-1.69849 3.4059,-1.69849 -0.275,0 -2.25766,0.76432 -4.4059,1.69849 -2.14824,0.93416 -3.6809,1.69848 -3.4059,1.69848 0.275,0 2.25766,-0.76432 4.4059,-1.69848 z m -282.499999,1.14773 c 0,-0.0694 -1.9125,-0.88147 -4.25,-1.80464 l -4.25,-1.67851 3.95295,1.80464 c 3.6762,1.6783 4.54705,1.99976 4.54705,1.67851 z m 552.999999,-1.27387 c 0,-0.0694 -1.9125,-0.88146 -4.25,-1.80464 l -4.25,-1.6785 3.95295,1.80464 c 3.6762,1.67829 4.54705,1.99976 4.54705,1.6785 z m 292.5,-2.42159 c 2.14824,-0.93416 3.6809,-1.69848 3.4059,-1.69848 -0.275,0 -2.25766,0.76432 -4.4059,1.69848 -2.14824,0.93417 -3.6809,1.69849 -3.4059,1.69849 0.275,0 2.25766,-0.76432 4.4059,-1.69849 z m -553.5,-1.06155 c 1.86578,-0.81739 3.16733,-1.48617 2.89233,-1.48617 -0.275,0 -2.02655,0.66878 -3.89233,1.48617 -1.86578,0.8174 -3.16733,1.48617 -2.89233,1.48617 0.275,0 2.02655,-0.66877 3.89233,-1.48617 z m -301.999999,0.93542 c 0,-0.0694 -1.9125,-0.88146 -4.25,-1.80464 l -4.25,-1.6785 3.95295,1.80463 c 3.6762,1.6783 4.54705,1.99977 4.54705,1.67851 z m 552.999999,-1.27674 c 0,-0.071 -1.6875,-0.78751 -3.75,-1.59233 l -3.75,-1.46332 3.44617,1.59233 c 3.20761,1.48211 4.05383,1.78757 4.05383,1.46332 z m 312,-2.2064 c 1.86578,-0.8174 3.16733,-1.48618 2.89233,-1.48618 -0.275,0 -2.02655,0.66878 -3.89233,1.48618 -1.86578,0.81739 -3.16733,1.48617 -2.89233,1.48617 0.275,0 2.02655,-0.66878 3.89233,-1.48617 z m -554,-0.84925 c 1.86578,-0.81739 3.16733,-1.48617 2.89233,-1.48617 -0.275,0 -2.02655,0.66878 -3.89233,1.48617 -1.86578,0.8174 -3.16733,1.48618 -2.89233,1.48618 0.275,0 2.02655,-0.66878 3.89233,-1.48618 z m -320.999999,0.49864 c 0,-0.0761 -1.2375,-0.60153 -2.75,-1.16771 l -2.75,-1.02941 2.42431,1.16771 c 2.26589,1.0914 3.07569,1.36243 3.07569,1.02941 z m 553.999999,-0.84924 c 0,-0.0761 -1.2375,-0.60153 -2.75,-1.16771 l -2.75,-1.02941 2.42431,1.16771 c 2.26589,1.0914 3.07569,1.36243 3.07569,1.02941 z m 329,-1.7725 c 1.29175,-0.58385 2.12363,-1.06155 1.84863,-1.06155 -0.275,0 -1.55688,0.4777 -2.84863,1.06155 -1.29175,0.58385 -2.12363,1.06155 -1.84863,1.06155 0.275,0 1.55688,-0.4777 2.84863,-1.06155 z m -889.999999,0.074 c 0,-0.0761 -1.2375,-0.60153 -2.75,-1.16771 l -2.75,-1.02941 2.42431,1.1677 c 2.26589,1.0914 3.07569,1.36244 3.07569,1.02942 z m 335.499999,-0.71095 c 0.99549,-0.46708 1.58498,-0.84924 1.30998,-0.84924 -0.275,0 -1.31449,0.38216 -2.30998,0.84924 -0.99549,0.46708 -1.58498,0.84924 -1.30998,0.84924 0.275,0 1.31449,-0.38216 2.30998,-0.84924 z m 218.5,-0.13829 c 0,-0.0761 -1.2375,-0.60153 -2.75,-1.16771 l -2.75,-1.02941 2.42431,1.1677 c 2.26589,1.0914 3.07569,1.36244 3.07569,1.02942 z m 342.5,-1.56019 c 0.99549,-0.46709 1.58498,-0.84924 1.30998,-0.84924 -0.275,0 -1.31449,0.38215 -2.30998,0.84924 -0.99549,0.46708 -1.58498,0.84924 -1.30998,0.84924 0.275,0 1.31449,-0.38216 2.30998,-0.84924 z m -555,-0.42462 c 0.99549,-0.46709 1.58498,-0.84925 1.30998,-0.84925 -0.275,0 -1.31449,0.38216 -2.30998,0.84925 -0.99549,0.46708 -1.58498,0.84924 -1.30998,0.84924 0.275,0 1.31449,-0.38216 2.30998,-0.84924 z m -348.499999,0.27812 c 0,-0.0806 -1.0125,-0.51051 -2.25,-0.9554 l -2.25,-0.8089 1.90499,0.9554 c 1.79022,0.89784 2.59501,1.1487 2.59501,0.8089 z m 553.999999,-0.86306 c 0,-0.0882 -0.7875,-0.42257 -1.75,-0.74309 -1.58606,-0.52817 -1.62143,-0.51315 -0.37756,0.16032 1.30637,0.70731 2.12756,0.93225 2.12756,0.58277 z m 355.12756,-1.00739 c 1.24387,-0.67348 1.2085,-0.68849 -0.37756,-0.16032 -0.9625,0.32052 -1.75,0.65491 -1.75,0.74309 0,0.34947 0.82119,0.12454 2.12756,-0.58277 z m -554.62756,-0.53078 c 0.99549,-0.46708 1.58498,-0.84924 1.30998,-0.84924 -0.275,0 -1.31449,0.38216 -2.30998,0.84924 -0.99549,0.46709 -1.58498,0.84924 -1.30998,0.84924 0.275,0 1.31449,-0.38215 2.30998,-0.84924 z m -360.499999,0.2643 c 0,-0.0882 -0.7875,-0.42256 -1.75,-0.74308 -1.58606,-0.52818 -1.62143,-0.51316 -0.37755,0.16032 1.30636,0.70731 2.12755,0.93224 2.12755,0.58276 z m 554.999999,-0.42462 c 0,-0.0882 -0.7875,-0.42256 -1.75,-0.74308 -1.58606,-0.52818 -1.62143,-0.51316 -0.37756,0.16032 1.30637,0.70731 2.12756,0.93224 2.12756,0.58276 z m 365.12756,-1.00738 c 1.24387,-0.67348 1.2085,-0.6885 -0.37756,-0.16032 -0.9625,0.32052 -1.75,0.65491 -1.75,0.74308 0,0.34948 0.82119,0.12455 2.12756,-0.58276 z m -925.127559,-0.26648 c 0,-0.0882 -0.7875,-0.42256 -1.75,-0.74309 -1.58606,-0.52817 -1.62143,-0.51315 -0.37755,0.16032 1.30636,0.70732 2.12755,0.93225 2.12755,0.58277 z m 554.999999,-0.42462 c 0,-0.0882 -0.7875,-0.42256 -1.75,-0.74309 -1.58606,-0.52817 -1.62143,-0.51315 -0.37756,0.16032 1.30637,0.70732 2.12756,0.93225 2.12756,0.58277 z M 349.96859,240.39028 c -0.33229,-0.1411 -1.1948,-0.15618 -1.91667,-0.0335 -0.79773,0.13554 -0.56078,0.23616 0.60417,0.25654 1.05416,0.0184 1.64479,-0.0819 1.3125,-0.22302 z m 44,0 c -0.33229,-0.1411 -1.1948,-0.15618 -1.91667,-0.0335 -0.79773,0.13554 -0.56078,0.23616 0.60417,0.25654 1.05416,0.0184 1.64479,-0.0819 1.3125,-0.22302 z m -38.47917,-0.4493 c -0.6875,-0.11779 -1.8125,-0.11779 -2.5,0 -0.6875,0.1178 -0.125,0.21418 1.25,0.21418 1.375,0 1.9375,-0.0964 1.25,-0.21418 z m 33.47917,0.0247 c -0.33229,-0.14109 -1.1948,-0.15617 -1.91667,-0.0335 -0.79773,0.13555 -0.56078,0.23617 0.60417,0.25654 1.05416,0.0184 1.64479,-0.0819 1.3125,-0.22302 z m -10.97917,-0.48295 c -3.7125,-0.0817 -9.7875,-0.0817 -13.5,0 -3.7125,0.0817 -0.675,0.14855 6.75,0.14855 7.425,0 10.4625,-0.0668 6.75,-0.14855 z"
       id="path3063"
       inkscape:connector-curvature="0"
       sodipodi:nodetypes="csssssssssssssssscssssssssssssssssccccccccccccccccccccccccccccccccsssssssscccccsssscccccssssssssssssssssssssssssssssssssssssssscssssssssscssssssssscssscsssscssssscsssscssscsssssssssscsssscsssssssssssssscsssscsssssssssssssscsssscsssssssssssssscsssscsssssssssssssscsssscssssssssscssssssssscsssssssssssssscsssssssssssssssssssssssssssssssssssccccccccccsssscccccssss" />
  </g>
</svg>
