<?xml version="1.0" encoding="UTF-8" standalone="no"?>
<!-- Created with Inkscape (http://www.inkscape.org/) -->
<svg xmlns:dc="http://purl.org/dc/elements/1.1/" xmlns:cc="http://creativecommons.org/ns#" xmlns:rdf="http://www.w3.org/1999/02/22-rdf-syntax-ns#" xmlns:svg="http://www.w3.org/2000/svg" xmlns="http://www.w3.org/2000/svg" xmlns:sodipodi="http://sodipodi.sourceforge.net/DTD/sodipodi-0.dtd" xmlns:inkscape="http://www.inkscape.org/namespaces/inkscape" width="1920" height="220" id="svg3629" version="1.1" inkscape:version="0.47 r22583" sodipodi:docname="footerweiss.svg" inkscape:export-filename="C:\Users\ubuciko\Desktop\footerweiss.png" inkscape:export-xdpi="90" inkscape:export-ydpi="90">
  <defs id="defs3631">
    <inkscape:perspective sodipodi:type="inkscape:persp3d" inkscape:vp_x="0 : 526.18109 : 1" inkscape:vp_y="0 : 1000 : 0" inkscape:vp_z="744.09448 : 526.18109 : 1" inkscape:persp3d-origin="372.04724 : 350.78739 : 1" id="perspective3637"/>
    <inkscape:perspective id="perspective3647" inkscape:persp3d-origin="0.5 : 0.33333333 : 1" inkscape:vp_z="1 : 0.5 : 1" inkscape:vp_y="0 : 1000 : 0" inkscape:vp_x="0 : 0.5 : 1" sodipodi:type="inkscape:persp3d"/>
    <inkscape:perspective id="perspective4272" inkscape:persp3d-origin="0.5 : 0.33333333 : 1" inkscape:vp_z="1 : 0.5 : 1" inkscape:vp_y="0 : 1000 : 0" inkscape:vp_x="0 : 0.5 : 1" sodipodi:type="inkscape:persp3d"/>
    <inkscape:perspective id="perspective4304" inkscape:persp3d-origin="0.5 : 0.33333333 : 1" inkscape:vp_z="1 : 0.5 : 1" inkscape:vp_y="0 : 1000 : 0" inkscape:vp_x="0 : 0.5 : 1" sodipodi:type="inkscape:persp3d"/>
  </defs>
  <sodipodi:namedview id="base" pagecolor="#ffffff" bordercolor="#666666" borderopacity="1.0" inkscape:pageopacity="1" inkscape:pageshadow="2" inkscape:zoom="0.70710678" inkscape:cx="1098.782" inkscape:cy="102.87157" inkscape:document-units="px" inkscape:current-layer="layer1" showgrid="false" showguides="true" inkscape:guide-bbox="true" inkscape:window-width="1680" inkscape:window-height="998" inkscape:window-x="1272" inkscape:window-y="-8" inkscape:window-maximized="1"/>
  <metadata id="metadata3634">
    <rdf:RDF>
      <cc:Work rdf:about="">
        <dc:format>image/svg+xml</dc:format>
        <dc:type rdf:resource="http://purl.org/dc/dcmitype/StillImage"/>
        <dc:title/>
      </cc:Work>
    </rdf:RDF>
  </metadata>
  <g inkscape:label="Ebene 1" inkscape:groupmode="layer" id="layer1" transform="translate(0, -832.362)">
    <path style="fill: rgb(179, 179, 179); fill-opacity: 1; stroke: none;" d="m 1175.0313,845.86222 c -37.0122,0.12381 -77.3633,6.30659 -122.3125,19.07219 -89.2017,21.13511 -166.78128,43.72437 -266.1563,48.00485 C 680.01664,911.41463 579.28135,898.9056 465.46875,890.78567 411.65012,890.03493 364.13098,890.77477 311.28125,901.74894 276.53772,911.76322 247.52688,918.21569 196.875,929.57878 149.11328,938.92576 64.85636,961.01443 0,935.4172 l 0,218.6167 1899.0938,0 -159.125,-81.3163 c -120.0755,-62.033 -200.9695,-97.73849 -265.4062,-128.12114 -62.3821,-25.97633 -112.146,-54.83544 -197.2188,-81.51088 -31.6269,-11.41721 -65.3003,-17.34717 -102.3125,-17.22336 z" id="rect3745"/>
    <path style="fill: rgb(179, 179, 179); fill-opacity: 1; stroke: none;" d="m 0,630.52645 0,164.50082 c 66.15988,33.18313 143.15491,9.61023 194.125,0 50.65188,-10.9477 79.66272,-17.17659 114.40625,-26.82472 52.84973,-10.57304 100.36887,-11.28928 154.1875,-10.56595 113.8126,7.82311 214.54789,19.89069 321.09375,21.35957 99.37502,-4.12396 176.95467,-25.90899 266.1563,-46.27151 89.8984,-24.59788 161.3713,-23.77583 224.625,-1.77619 85.0728,25.70037 136.227,54.9367 201.4374,58.7503 129.4907,-0.4265 257.0563,-98.96203 387.0313,-156.57638 l 1.9375,0.3188 7.5625,-2.91474 -1872.5625,0 z" id="path5721"/>
    <path id="path5719-1" d="m 0,635.52645 0,139.14079 c 66.15988,28.06746 143.15491,8.12863 194.125,0 50.65188,-9.26002 79.66272,-14.52861 114.40625,-22.68935 52.84973,-8.94306 100.36887,-9.54888 154.1875,-8.93707 113.8126,6.61708 214.54789,16.82427 321.09375,18.06674 99.37502,-3.48823 176.95467,-21.9148 266.1563,-39.13816 89.8984,-20.80578 161.3713,-20.11046 224.625,-1.50236 85.0728,21.7383 136.227,46.46743 201.4374,49.69314 129.4907,-0.36072 257.0563,-83.70569 387.0313,-132.43799 l 1.9375,0.26965 7.5625,-2.46539 -1872.5625,0 z" style="fill: rgb(255, 136, 0); fill-opacity: 1; stroke: none;"/>
    <path style="opacity: 0.500876; fill: rgb(255, 172, 76); fill-opacity: 1; stroke: none;" d="m 0,640.52645 0,112.875 c 66.15988,22.76913 143.15491,6.5942 194.125,0 50.65188,-7.51199 79.66272,-11.78602 114.40625,-18.40625 52.84973,-7.25486 100.36887,-7.74633 154.1875,-7.25 113.8126,5.36796 214.54789,13.64833 321.09375,14.65625 99.37502,-2.82975 176.95467,-17.77791 266.1563,-31.75 89.8984,-16.87825 161.3713,-16.31418 224.625,-1.21875 85.0728,17.63473 136.227,37.69571 201.4374,40.3125 129.4907,-0.29263 257.0563,-67.90446 387.0313,-107.4375 l 1.9375,0.21875 7.5625,-2 -1872.5625,0 z" id="rect4805-7"/>
    <path id="path4292" d="m 1175.0313,868.39298 c -37.0122,0.11273 -77.3633,5.74305 -122.3125,17.36794 -89.2017,19.2465 -166.78128,39.81723 -266.1563,43.71522 -106.54586,-1.38839 -207.28115,-12.77963 -321.09375,-20.17399 -53.81863,-0.68365 -101.33777,-0.0102 -154.1875,9.98362 -34.74353,9.11942 -63.75437,14.99531 -114.40625,25.34301 C 149.11328,953.14053 64.85636,973.25541 0,949.9455 l 0,199.0815 1899.0938,0 -159.125,-74.05 c -120.0755,-56.4897 -200.9695,-89.00477 -265.4062,-116.67249 -62.3821,-23.65514 -112.146,-49.93546 -197.2188,-74.22722 -31.6269,-10.397 -65.3003,-15.79706 -102.3125,-15.68431 z" style="fill: rgb(255, 136, 0); fill-opacity: 1; stroke: none;"/>
    <path style="fill: rgb(255, 154, 38); fill-opacity: 1; stroke: none;" d="m 1175.0313,890.92373 c -37.0122,0.10121 -77.3633,5.15389 -122.3125,15.58622 -89.2017,17.27206 -166.78128,35.73251 -266.1563,39.23061 -106.54586,-1.24596 -207.28115,-11.4686 -321.09375,-18.1044 -53.81863,-0.61352 -101.33777,-0.009 -154.1875,8.95943 -34.74353,8.18389 -63.75437,13.45699 -114.40625,22.74315 C 149.11328,966.9773 64.85636,985.02865 0,964.11004 l 0,178.65836 1899.0938,0 -159.125,-66.4534 c -120.0755,-50.6947 -200.9695,-79.8741 -265.4062,-104.70348 -62.3821,-21.22843 -112.146,-44.81274 -197.2188,-66.61248 -31.6269,-9.33041 -65.3003,-14.1765 -102.3125,-14.07531 z" id="path4294"/>
    <path id="path12357" style="fill: rgb(255, 136, 0); fill-opacity: 1; fill-rule: evenodd; stroke: none;" d="m 315.81345,842.32779 66.24016,36.68264 0.12847,0.60037 -19.38744,17.96138 3.51571,1.75914 -10.63882,14.83366 -76.84735,16.44365 -1.28467,-6.0037 -0.98575,-1.67264 -3.98762,-1.03032 -2.70037,-3.81719 -1.06969,-7.93327 -0.64233,-3.00185 -1.97154,-3.34528 17.46303,-35.75752 -3.08577,-5.6183 -0.12847,-0.60037 6.26064,-0.0839 5.62089,-11.87635 1.07227,-0.85729 21.22792,-6.4259 1.20074,-0.25694 z m 0.12847,0.60038 2.56932,12.00738 13.85046,0.17562 0.12847,0.60036 c 3.68613,5.48984 5.22773,12.69427 2.91017,19.46878 l 0.25694,1.20073 c 3.55767,4.88947 3.64159,11.1501 1.66746,16.59539 l 1.20074,-0.25693 2.91534,1.88761 c 7.20961,-19.12274 3.14067,-35.20426 -8.39225,-42.15436 -10.80407,-6.47819 -17.10666,-9.52458 -17.10666,-9.52458 z m -1.20073,0.25693 -21.22793,6.42589 2.56933,12.0074 12.04935,0.56099 0.12847,0.60037 -0.60037,0.12847 3.59964,8.01978 c 2.10258,-4.84492 -1.71203,-10.93513 -5.01276,-14.62385 l -0.12847,-0.60037 10.82763,-0.74723 -2.20489,-11.77145 z m -22.30021,7.28319 -5.14897,11.14751 7.22542,0.0236 -2.07645,-11.17108 z m 16.33587,5.92236 8.74734,1.26756 -0.32117,-1.50092 -8.42617,0.23336 z m -26.9524,6.08116 3.92337,0.73013 0.47191,-0.72884 -4.39528,-0.001 z m 5.05988,0.17301 -0.4719,0.72884 8.68309,0.96738 -0.32115,-1.50094 -7.89004,-0.19528 z m 31.88385,-6.50851 0.25693,1.20074 c 3.25877,0.5584 6.98947,0.38798 9.73438,-1.45509 l -9.99131,0.25435 z m -22.42867,6.68281 0.25693,1.20074 7.93328,-1.06969 -8.19021,-0.13105 z m -12.5658,5.8281 -16.99113,35.02868 14.92274,-0.68169 4.84492,2.10257 c 1.11682,-6.51756 -1.62545,-13.46508 -4.71128,-19.08337 l -0.60036,0.12857 -0.25692,-1.20075 0.60035,-0.12847 c 3.30334,-5.10184 4.67709,-10.41867 2.19169,-16.16544 z m 29.24253,7.55565 7.46137,-0.34086 -0.12847,-0.60037 -7.33291,0.94119 z m 9.13401,-1.32663 0.19269,0.90056 11.25629,-0.2111 c -3.61644,-1.84759 -8.35452,-1.1107 -11.44898,-0.68946 z m -10.14205,2.48411 8.98328,0.90314 -0.25694,-1.20073 -8.72634,0.29759 z m 10.59169,-0.38281 0.32116,1.50091 c 3.13032,-0.0419 6.73254,-0.81272 9.60591,-2.05544 l -9.92707,0.55453 z m -38.48793,7.92164 13.59355,-1.02514 -0.25692,-1.20074 c -4.39529,-0.001 -8.83385,1.26239 -13.33663,2.22588 z m -1.07227,0.8573 c 5.01664,1.43799 10.14077,1.91118 15.30815,1.11941 l -0.3854,-1.80112 -14.92275,0.68171 z m 16.93883,-2.99668 0.1927,0.90055 6.32487,0.21628 -6.51756,-1.11683 z m 11.19206,-0.51127 -0.81534,2.05804 2.82884,4.41756 c 0,0 -0.2989,-4.33105 -2.0135,-6.4756 z m -10.74242,2.61257 0.32116,1.50092 7.80481,-1.67005 -8.12597,0.16913 z m 41.61306,9.61756 c 6.08761,4.97596 12.17652,5.55664 18.43845,1.07743 l 20.37321,-16.28873 c 0,0 -2.31498,-2.01609 -4.97339,-2.70296 -14.81396,-4.67838 -25.04511,9.12626 -33.83827,17.91426 z m -16.38042,-0.26211 0.25693,1.20074 7.93328,-1.06968 c -2.59419,-0.3867 -5.42431,-0.40897 -8.19021,-0.13106 z m -1.80112,0.3854 -8.27671,2.39889 8.53365,-1.19815 -0.25694,-1.20074 z m -8.14825,2.99926 c 0.2779,2.7659 -0.60231,6.92191 -0.85988,7.7183 l 0.25693,1.20074 -10.93513,1.71202 1.5416,7.20445 c 8.66211,-0.59778 11.36507,-5.57118 12.82533,-13.41795 l 3.47375,-1.37116 0.0865,-2.52994 2.40149,-0.51387 -0.25694,-1.20074 -8.53365,1.19815 z m 10.33477,-1.58355 0.12846,0.60037 3.83817,-1.13522 -3.96664,0.53483 z m -22.51518,9.21276 0.3854,1.80112 7.93328,-1.0697 -8.31868,-0.73142 z m -1.80109,0.3854 -10.07784,2.7843 10.46323,-0.98318 -0.38539,-1.80112 z m -9.82091,3.98503 c 1.41313,6.60407 6.06535,7.80611 12.00483,6.22127 l -1.54159,-7.20445 -10.46324,0.98318 z"/>
  </g>
</svg>