<?xml version="1.0" encoding="UTF-8" standalone="no"?>
<!-- Created with Inkscape (http://www.inkscape.org/) -->

<svg
   xmlns:dc="http://purl.org/dc/elements/1.1/"
   xmlns:cc="http://creativecommons.org/ns#"
   xmlns:rdf="http://www.w3.org/1999/02/22-rdf-syntax-ns#"
   xmlns:svg="http://www.w3.org/2000/svg"
   xmlns="http://www.w3.org/2000/svg"
   xmlns:xlink="http://www.w3.org/1999/xlink"
   version="1.1"
   width="1920"
   height="190"
   id="svg4779">
  <defs
     id="defs4781">
    <linearGradient
       x1="483.44086"
       y1="345.39603"
       x2="486.50003"
       y2="447.29626"
       id="linearGradient4115"
       xlink:href="#linearGradient4109"
       gradientUnits="userSpaceOnUse"
       gradientTransform="matrix(1,0,0,1.25221,0,-69.8123)" />
    <linearGradient
       id="linearGradient4109">
      <stop
         id="stop4111"
         style="stop-color:#ff8800;stop-opacity:1"
         offset="0" />
      <stop
         id="stop4113"
         style="stop-color:#ff8800;stop-opacity:0"
         offset="1" />
    </linearGradient>
    <linearGradient
       id="linearGradient4129">
      <stop
         id="stop4131"
         style="stop-color:#ffac4c;stop-opacity:1"
         offset="0" />
      <stop
         id="stop4133"
         style="stop-color:#ffd082;stop-opacity:1"
         offset="1" />
    </linearGradient>
    <mask
       id="mask5759">
      <path
         d="m 0,452.36218 0,112.875 c 66.159886,22.76913 143.15491,6.5942 194.125,0 50.65188,-7.51199 79.66272,-11.78602 114.40625,-18.40625 52.84973,-7.25487 100.36887,-7.74633 154.1875,-7.25 113.8126,5.36796 214.54789,13.64833 321.09375,14.65625 99.37502,-2.82975 176.95467,-17.77791 266.1563,-31.75 89.8984,-16.87825 161.3713,-16.31418 224.625,-1.21875 85.0728,17.63473 136.227,37.69571 201.4374,40.3125 129.4907,-0.29263 257.0563,-67.90446 387.0313,-107.4375 l 1.9375,0.21875 7.5625,-2 -1872.5625,0 z"
         id="path5761"
         style="fill:#ffac4c;fill-opacity:1;stroke:none" />
    </mask>
  </defs>
  <metadata
     id="metadata4784">
    <rdf:RDF>
      <cc:Work
         rdf:about="">
        <dc:format>image/svg+xml</dc:format>
        <dc:type
           rdf:resource="http://purl.org/dc/dcmitype/StillImage" />
        <dc:title></dc:title>
      </cc:Work>
    </rdf:RDF>
  </metadata>
  <g
     transform="translate(0,-862.362)"
     id="layer1">
    <path
       d="M 0,852.36218 0,1016.863 c 66.159886,33.1831 143.15491,9.6102 194.125,0 50.65188,-10.9477 79.66272,-17.17659 114.40625,-26.82472 52.84973,-10.57304 100.36887,-11.28928 154.1875,-10.56595 113.8126,7.82311 214.54789,19.89069 321.09375,21.35957 99.37502,-4.12396 176.95467,-25.90899 266.1563,-46.27151 89.8984,-24.59788 161.3713,-23.77583 224.625,-1.77619 85.0728,25.70037 136.227,54.9367 201.4374,58.7503 129.4907,-0.4265 257.0563,-98.96203 387.0313,-156.57638 l 1.9375,0.3188 7.5625,-2.91474 -1872.5625,0 z"
       id="path5721"
       style="fill:#b3b3b3;fill-opacity:1;stroke:none" />
    <path
       d="m 0,857.36218 0,139.14079 c 66.159886,28.06743 143.15491,8.12863 194.125,0 50.65188,-9.26002 79.66272,-14.52861 114.40625,-22.68935 52.84973,-8.94306 100.36887,-9.54888 154.1875,-8.93707 113.8126,6.61708 214.54789,16.82427 321.09375,18.06674 99.37502,-3.48823 176.95467,-21.9148 266.1563,-39.13816 89.8984,-20.80578 161.3713,-20.11046 224.625,-1.50236 85.0728,21.7383 136.227,46.46743 201.4374,49.69314 129.4907,-0.36072 257.0563,-83.70569 387.0313,-132.43799 l 1.9375,0.26965 7.5625,-2.46539 -1872.5625,0 z"
       id="path5719"
       style="fill:#ff8800;fill-opacity:1;stroke:none" />
    <path
       d="m 0,862.36218 0,112.875 c 66.159886,22.76913 143.15491,6.5942 194.125,0 50.65188,-7.51199 79.66272,-11.78602 114.40625,-18.40625 52.84973,-7.25486 100.36887,-7.74633 154.1875,-7.25 113.8126,5.36796 214.54789,13.64833 321.09375,14.65625 99.37502,-2.82975 176.95467,-17.77791 266.1563,-31.75 89.8984,-16.87825 161.3713,-16.31418 224.625,-1.21875 85.0728,17.63473 136.227,37.69571 201.4374,40.3125 129.4907,-0.29263 257.0563,-67.90446 387.0313,-107.4375 l 1.9375,0.21875 7.5625,-2 -1872.5625,0 z"
       id="rect4805"
       style="opacity:0.50087603;fill:#ffac4c;fill-opacity:1;stroke:none" />
    <path
       d="m 573.91136,880.60509 -61.42529,44.27536 -0.0564,0.61137 21.37969,15.53681 -3.28242,2.16345 12.32203,13.46809 78.25467,7.21918 0.564,-6.11365 0.78055,-1.77769 3.83739,-1.4957 2.22889,-4.11035 0.12183,-8.00414 0.282,-3.05682 1.56113,-3.55538 -21.57819,-33.4356 2.39809,-5.94444 0.0564,-0.61137 -6.22645,0.65873 -6.98894,-11.12639 -1.16633,-0.72416 -21.83993,-3.86449 -1.22273,-0.11281 z m -0.0564,0.61137 -1.128,12.22728 -13.73201,1.81604 -0.0564,0.61136 c -3.00945,5.88805 -3.68625,13.22442 -0.58206,19.67647 l -0.11281,1.22273 c -2.95305,5.27668 -2.29432,11.50313 0.31131,16.67604 l -1.22273,-0.1128 -2.67105,2.21986 c -9.42537,-18.1334 -7.29122,-34.58384 3.33662,-42.85192 9.96006,-7.71311 15.85714,-11.48506 15.85714,-11.48506 z m 1.22272,0.1128 21.83994,3.86449 -1.12801,12.22729 -11.89792,1.98522 -0.0564,0.61137 0.61136,0.0564 -2.62369,8.38991 c -2.66202,-4.56156 0.40384,-11.06097 3.24409,-15.11492 l 0.0564,-0.61136 -10.83987,0.54141 0.7941,-11.94981 z m 23.00627,4.58865 6.43397,10.45863 -7.1717,0.87982 0.73773,-11.33845 z m -15.51875,7.81687 -8.53543,2.29543 0.141,-1.52841 8.39443,-0.76702 z m 27.4832,2.84368 -3.80918,1.19001 -0.55497,-0.66777 4.36415,-0.52224 z m -5.00371,0.77153 0.55496,0.66776 -8.50722,1.98975 0.14099,-1.52842 7.81127,-1.12909 z m -32.43053,-2.68351 -0.1128,1.22273 c -3.16961,0.94072 -6.89421,1.2137 -9.83823,-0.29103 l 9.95103,-0.9317 z m 23.06266,3.97728 -0.1128,1.22273 -8.00414,-0.12183 8.11694,-1.1009 z m 13.16802,4.29762 21.02323,32.76783 -14.89835,1.09187 -4.56155,2.66201 c -1.88146,-6.33924 0.018,-13.56282 2.41616,-19.50726 l 0.61136,0.0565 0.11279,-1.22274 -0.61135,-0.0564 c -3.88476,-4.67434 -5.87902,-9.79086 -4.09229,-15.79171 z m -28.14084,10.96844 -7.44917,0.54593 0.0564,-0.61137 7.39277,0.0654 z m -9.22686,-0.23464 -0.0846,0.91705 -11.20196,1.12458 c 3.37196,-2.26322 8.16398,-2.09312 11.28656,-2.04163 z m 10.36499,1.26448 -8.81291,1.96155 0.11281,-1.22272 8.7001,-0.73883 z m -10.5624,0.8753 -0.141,1.5284 c -3.11322,0.32938 -6.78141,-0.009 -9.78182,-0.90238 l 9.92282,-0.62602 z m 39.15555,3.30391 -13.61923,0.5933 0.11279,-1.22273 c 4.36415,-0.52226 8.9212,0.20643 13.50644,0.62943 z m 1.16633,0.72416 c -4.81084,2.02246 -9.84276,3.09967 -15.06756,2.92596 l 0.1692,-1.8341 14.89836,-1.09186 z m -17.17462,-0.96783 -0.0846,0.91704 -6.25465,0.96443 6.33924,-1.88147 z m -11.17376,0.8189 1.05353,1.9469 -2.2853,4.72171 c 0,0 -0.21656,-4.33595 1.23177,-6.66861 z m 10.97636,1.32088 -0.141,1.52841 -7.94774,-0.73319 8.08874,-0.79522 z m -40.17977,14.48207 c -5.45491,5.66244 -11.43207,6.96073 -18.18077,3.25531 l -22.16026,-13.75911 c 0,0 2.0597,-2.27627 4.61795,-3.27339 14.15502,-6.40127 25.95028,6.09338 35.72308,13.77719 z m 16.23388,-2.2018 -0.1128,1.22273 -8.00414,-0.12182 c 2.53007,-0.69146 5.3376,-1.04902 8.11694,-1.10091 z m 1.8341,0.16921 8.5027,1.40095 -8.6155,-0.17823 0.1128,-1.22272 z m 8.44631,2.01232 c 0.0519,2.77934 1.41851,6.80172 1.76865,7.56197 l -0.11279,1.22273 11.06096,0.40383 -0.6768,7.33639 c -8.6719,0.43313 -11.94529,-4.18483 -14.32532,-11.80321 l -3.61179,-0.94975 -0.38576,-2.50186 -2.44546,-0.2256 0.1128,-1.22273 8.61551,0.17823 z m -10.44961,-0.34743 -0.0564,0.61136 -3.94566,-0.67228 4.00207,0.0609 z m 23.44843,6.47914 -0.1692,1.8341 -8.00414,-0.12184 8.17334,-1.71226 z m 1.83408,0.1692 10.33681,1.57017 -10.506,0.26393 0.16919,-1.8341 z m 10.22401,2.79289 c -0.6204,6.72501 -5.09735,8.46999 -11.18281,7.60032 l 0.6768,-7.33639 10.50601,-0.26393 z"
       id="path12357"
       style="fill:#ff8800;fill-opacity:1;fill-rule:evenodd;stroke:none" />
  </g>
</svg>
