<?xml version="1.0" encoding="UTF-8" standalone="no"?>
<!-- Created with Inkscape (http://www.inkscape.org/) -->
<svg xmlns:dc="http://purl.org/dc/elements/1.1/" xmlns:cc="http://creativecommons.org/ns#" xmlns:rdf="http://www.w3.org/1999/02/22-rdf-syntax-ns#" xmlns:svg="http://www.w3.org/2000/svg" xmlns="http://www.w3.org/2000/svg" xmlns:xlink="http://www.w3.org/1999/xlink" xmlns:sodipodi="http://sodipodi.sourceforge.net/DTD/sodipodi-0.dtd" xmlns:inkscape="http://www.inkscape.org/namespaces/inkscape" width="1920" height="190" id="svg4779" version="1.1" inkscape:version="0.47 r22583" inkscape:export-filename="C:\Users\ubuciko\Desktop\headerweiss.png" inkscape:export-xdpi="90" inkscape:export-ydpi="90" sodipodi:docname="headerohnelogo.svg">
  <defs id="defs4781">
    <inkscape:perspective sodipodi:type="inkscape:persp3d" inkscape:vp_x="0 : 526.18109 : 1" inkscape:vp_y="0 : 1000 : 0" inkscape:vp_z="744.09448 : 526.18109 : 1" inkscape:persp3d-origin="372.04724 : 350.78739 : 1" id="perspective4787"/>
    <inkscape:perspective id="perspective4797" inkscape:persp3d-origin="0.5 : 0.33333333 : 1" inkscape:vp_z="1 : 0.5 : 1" inkscape:vp_y="0 : 1000 : 0" inkscape:vp_x="0 : 0.5 : 1" sodipodi:type="inkscape:persp3d"/>
    <linearGradient gradientTransform="matrix(1, 0, 0, 1.25221, 0, -69.8123)" gradientUnits="userSpaceOnUse" y2="447.29626" x2="486.50003" y1="345.39603" x1="483.44086" id="linearGradient4115" xlink:href="#linearGradient4109" inkscape:collect="always"/>
    <inkscape:perspective sodipodi:type="inkscape:persp3d" inkscape:vp_x="0 : 56.042999 : 1" inkscape:vp_y="0 : 1000 : 0" inkscape:vp_z="260.43201 : 56.042999 : 1" inkscape:persp3d-origin="130.216 : 37.362 : 1" id="perspective288"/>
    <inkscape:perspective sodipodi:type="inkscape:persp3d" inkscape:vp_x="0 : 64 : 1" inkscape:vp_y="0 : 1000 : 0" inkscape:vp_z="193.1198 : 64 : 1" inkscape:persp3d-origin="96.559898 : 42.666667 : 1" id="perspective3628"/>
    <inkscape:perspective sodipodi:type="inkscape:persp3d" inkscape:vp_x="0 : 526.18109 : 1" inkscape:vp_y="0 : 1000 : 0" inkscape:vp_z="744.09448 : 526.18109 : 1" inkscape:persp3d-origin="372.04724 : 350.78739 : 1" id="perspective10"/>
    <linearGradient id="linearGradient4109" inkscape:collect="always">
      <stop id="stop4111" offset="0" style="stop-color: rgb(255, 136, 0); stop-opacity: 1;"/>
      <stop id="stop4113" offset="1" style="stop-color: rgb(255, 136, 0); stop-opacity: 0;"/>
    </linearGradient>
    <linearGradient id="linearGradient4129">
      <stop id="stop4131" offset="0" style="stop-color: rgb(255, 172, 76); stop-opacity: 1;"/>
      <stop id="stop4133" offset="1" style="stop-color: rgb(255, 208, 130); stop-opacity: 1;"/>
    </linearGradient>
    <inkscape:perspective id="perspective288-4" inkscape:persp3d-origin="130.216 : 37.362 : 1" inkscape:vp_z="260.43201 : 56.042999 : 1" inkscape:vp_y="0 : 1000 : 0" inkscape:vp_x="0 : 56.042999 : 1" sodipodi:type="inkscape:persp3d"/>
    <inkscape:perspective id="perspective5739" inkscape:persp3d-origin="96.559898 : 42.666667 : 1" inkscape:vp_z="193.1198 : 64 : 1" inkscape:vp_y="0 : 1000 : 0" inkscape:vp_x="0 : 64 : 1" sodipodi:type="inkscape:persp3d"/>
    <inkscape:perspective id="perspective5753" inkscape:persp3d-origin="0.5 : 0.33333333 : 1" inkscape:vp_z="1 : 0.5 : 1" inkscape:vp_y="0 : 1000 : 0" inkscape:vp_x="0 : 0.5 : 1" sodipodi:type="inkscape:persp3d"/>
    <mask maskUnits="userSpaceOnUse" id="mask5759">
      <path id="path5761" d="m 0,452.36218 0,112.875 c 66.159886,22.76913 143.15491,6.5942 194.125,0 50.65188,-7.51199 79.66272,-11.78602 114.40625,-18.40625 52.84973,-7.25487 100.36887,-7.74633 154.1875,-7.25 113.8126,5.36796 214.54789,13.64833 321.09375,14.65625 99.37502,-2.82975 176.95467,-17.77791 266.1563,-31.75 89.8984,-16.87825 161.3713,-16.31418 224.625,-1.21875 85.0728,17.63473 136.227,37.69571 201.4374,40.3125 129.4907,-0.29263 257.0563,-67.90446 387.0313,-107.4375 l 1.9375,0.21875 7.5625,-2 -1872.5625,0 z" style="fill: rgb(255, 172, 76); fill-opacity: 1; stroke: none;"/>
    </mask>
  </defs>
  <sodipodi:namedview id="base" pagecolor="#ffffff" bordercolor="#666666" borderopacity="1.0" inkscape:pageopacity="1" inkscape:pageshadow="2" inkscape:zoom="1" inkscape:cx="584.03196" inkscape:cy="-110.48935" inkscape:document-units="px" inkscape:current-layer="layer1" showgrid="false" inkscape:window-width="1680" inkscape:window-height="998" inkscape:window-x="1272" inkscape:window-y="-8" inkscape:window-maximized="1" borderlayer="true"/>
  <metadata id="metadata4784">
    <rdf:RDF>
      <cc:Work rdf:about="">
        <dc:format>image/svg+xml</dc:format>
        <dc:type rdf:resource="http://purl.org/dc/dcmitype/StillImage"/>
        <dc:title/>
      </cc:Work>
    </rdf:RDF>
  </metadata>
  <g inkscape:label="Ebene 1" inkscape:groupmode="layer" id="layer1" transform="translate(0, -862.362)">
    <path style="fill: rgb(179, 179, 179); fill-opacity: 1; stroke: none;" d="M 0,852.36218 0,1016.863 c 66.159886,33.1831 143.15491,9.6102 194.125,0 50.65188,-10.9477 79.66272,-17.17659 114.40625,-26.82472 52.84973,-10.57304 100.36887,-11.28928 154.1875,-10.56595 113.8126,7.82311 214.54789,19.89069 321.09375,21.35957 99.37502,-4.12396 176.95467,-25.90899 266.1563,-46.27151 89.8984,-24.59788 161.3713,-23.77583 224.625,-1.77619 85.0728,25.70037 136.227,54.9367 201.4374,58.7503 129.4907,-0.4265 257.0563,-98.96203 387.0313,-156.57638 l 1.9375,0.3188 7.5625,-2.91474 -1872.5625,0 z" id="path5721"/>
    <path id="path5719" d="m 0,857.36218 0,139.14079 c 66.159886,28.06743 143.15491,8.12863 194.125,0 50.65188,-9.26002 79.66272,-14.52861 114.40625,-22.68935 52.84973,-8.94306 100.36887,-9.54888 154.1875,-8.93707 113.8126,6.61708 214.54789,16.82427 321.09375,18.06674 99.37502,-3.48823 176.95467,-21.9148 266.1563,-39.13816 89.8984,-20.80578 161.3713,-20.11046 224.625,-1.50236 85.0728,21.7383 136.227,46.46743 201.4374,49.69314 129.4907,-0.36072 257.0563,-83.70569 387.0313,-132.43799 l 1.9375,0.26965 7.5625,-2.46539 -1872.5625,0 z" style="fill: rgb(255, 136, 0); fill-opacity: 1; stroke: none;"/>
    <path style="opacity: 0.500876; fill: rgb(255, 172, 76); fill-opacity: 1; stroke: none;" d="m 0,862.36218 0,112.875 c 66.159886,22.76913 143.15491,6.5942 194.125,0 50.65188,-7.51199 79.66272,-11.78602 114.40625,-18.40625 52.84973,-7.25486 100.36887,-7.74633 154.1875,-7.25 113.8126,5.36796 214.54789,13.64833 321.09375,14.65625 99.37502,-2.82975 176.95467,-17.77791 266.1563,-31.75 89.8984,-16.87825 161.3713,-16.31418 224.625,-1.21875 85.0728,17.63473 136.227,37.69571 201.4374,40.3125 129.4907,-0.29263 257.0563,-67.90446 387.0313,-107.4375 l 1.9375,0.21875 7.5625,-2 -1872.5625,0 z" id="rect4805"/>
  </g>
</svg>