<?xml version="1.0" encoding="UTF-8" standalone="no"?>
<!-- Created with Inkscape (http://www.inkscape.org/) -->

<svg
   xmlns:dc="http://purl.org/dc/elements/1.1/"
   xmlns:cc="http://creativecommons.org/ns#"
   xmlns:rdf="http://www.w3.org/1999/02/22-rdf-syntax-ns#"
   xmlns:svg="http://www.w3.org/2000/svg"
   xmlns="http://www.w3.org/2000/svg"
   xmlns:xlink="http://www.w3.org/1999/xlink"
   xmlns:sodipodi="http://sodipodi.sourceforge.net/DTD/sodipodi-0.dtd"
   xmlns:inkscape="http://www.inkscape.org/namespaces/inkscape"
   width="1872.5625"
   height="181.62506"
   id="svg4779"
   version="1.1"
   inkscape:version="0.47 r22583"
   inkscape:export-filename="C:\Users\ubuciko\Desktop\headerdunkel.png"
   inkscape:export-xdpi="90"
   inkscape:export-ydpi="90"
   sodipodi:docname="headerblank1920-weiß.svg">
  <defs
     id="defs4781">
    <inkscape:perspective
       sodipodi:type="inkscape:persp3d"
       inkscape:vp_x="0 : 526.18109 : 1"
       inkscape:vp_y="0 : 1000 : 0"
       inkscape:vp_z="744.09448 : 526.18109 : 1"
       inkscape:persp3d-origin="372.04724 : 350.78739 : 1"
       id="perspective4787" />
    <inkscape:perspective
       id="perspective4797"
       inkscape:persp3d-origin="0.5 : 0.33333333 : 1"
       inkscape:vp_z="1 : 0.5 : 1"
       inkscape:vp_y="0 : 1000 : 0"
       inkscape:vp_x="0 : 0.5 : 1"
       sodipodi:type="inkscape:persp3d" />
    <linearGradient
       gradientTransform="matrix(1,0,0,1.2522094,0,-69.812327)"
       gradientUnits="userSpaceOnUse"
       y2="447.29626"
       x2="486.50003"
       y1="345.39603"
       x1="483.44086"
       id="linearGradient4115"
       xlink:href="#linearGradient4109"
       inkscape:collect="always" />
    <inkscape:perspective
       sodipodi:type="inkscape:persp3d"
       inkscape:vp_x="0 : 56.042999 : 1"
       inkscape:vp_y="0 : 1000 : 0"
       inkscape:vp_z="260.43201 : 56.042999 : 1"
       inkscape:persp3d-origin="130.216 : 37.362 : 1"
       id="perspective288" />
    <inkscape:perspective
       sodipodi:type="inkscape:persp3d"
       inkscape:vp_x="0 : 64 : 1"
       inkscape:vp_y="0 : 1000 : 0"
       inkscape:vp_z="193.1198 : 64 : 1"
       inkscape:persp3d-origin="96.559898 : 42.666667 : 1"
       id="perspective3628" />
    <inkscape:perspective
       sodipodi:type="inkscape:persp3d"
       inkscape:vp_x="0 : 526.18109 : 1"
       inkscape:vp_y="0 : 1000 : 0"
       inkscape:vp_z="744.09448 : 526.18109 : 1"
       inkscape:persp3d-origin="372.04724 : 350.78739 : 1"
       id="perspective10" />
    <linearGradient
       id="linearGradient4109"
       inkscape:collect="always">
      <stop
         id="stop4111"
         offset="0"
         style="stop-color:#ff8800;stop-opacity:1;" />
      <stop
         id="stop4113"
         offset="1"
         style="stop-color:#ff8800;stop-opacity:0;" />
    </linearGradient>
    <linearGradient
       id="linearGradient4129">
      <stop
         id="stop4131"
         offset="0"
         style="stop-color:#ffac4c;stop-opacity:1;" />
      <stop
         id="stop4133"
         offset="1"
         style="stop-color:#ffd082;stop-opacity:1;" />
    </linearGradient>
    <inkscape:perspective
       id="perspective288-4"
       inkscape:persp3d-origin="130.216 : 37.362 : 1"
       inkscape:vp_z="260.43201 : 56.042999 : 1"
       inkscape:vp_y="0 : 1000 : 0"
       inkscape:vp_x="0 : 56.042999 : 1"
       sodipodi:type="inkscape:persp3d" />
    <inkscape:perspective
       id="perspective5739"
       inkscape:persp3d-origin="96.559898 : 42.666667 : 1"
       inkscape:vp_z="193.1198 : 64 : 1"
       inkscape:vp_y="0 : 1000 : 0"
       inkscape:vp_x="0 : 64 : 1"
       sodipodi:type="inkscape:persp3d" />
    <inkscape:perspective
       id="perspective5753"
       inkscape:persp3d-origin="0.5 : 0.33333333 : 1"
       inkscape:vp_z="1 : 0.5 : 1"
       inkscape:vp_y="0 : 1000 : 0"
       inkscape:vp_x="0 : 0.5 : 1"
       sodipodi:type="inkscape:persp3d" />
    <mask
       maskUnits="userSpaceOnUse"
       id="mask5759">
      <path
         id="path5761"
         d="m 0,452.36218 0,112.875 c 66.159886,22.76913 143.15491,6.5942 194.125,0 50.65188,-7.51199 79.66272,-11.78602 114.40625,-18.40625 52.84973,-7.25487 100.36887,-7.74633 154.1875,-7.25 113.8126,5.36796 214.54789,13.64833 321.09375,14.65625 99.37502,-2.82975 176.95467,-17.77791 266.1563,-31.75 89.8984,-16.87825 161.3713,-16.31418 224.625,-1.21875 85.0728,17.63473 136.227,37.69571 201.4374,40.3125 129.4907,-0.29263 257.0563,-67.90446 387.0313,-107.4375 l 1.9375,0.21875 7.5625,-2 -1872.5625,0 z"
         style="fill:#ffac4c;fill-opacity:1;stroke:none" />
    </mask>
  </defs>
  <sodipodi:namedview
     id="base"
     pagecolor="#ffffff"
     bordercolor="#666666"
     borderopacity="1.0"
     inkscape:pageopacity="1"
     inkscape:pageshadow="2"
     inkscape:zoom="1"
     inkscape:cx="590.95153"
     inkscape:cy="-32.100912"
     inkscape:document-units="px"
     inkscape:current-layer="layer1"
     showgrid="false"
     inkscape:window-width="1440"
     inkscape:window-height="852"
     inkscape:window-x="0"
     inkscape:window-y="0"
     inkscape:window-maximized="1" />
  <metadata
     id="metadata4784">
    <rdf:RDF>
      <cc:Work
         rdf:about="">
        <dc:format>image/svg+xml</dc:format>
        <dc:type
           rdf:resource="http://purl.org/dc/dcmitype/StillImage" />
        <dc:title></dc:title>
      </cc:Work>
    </rdf:RDF>
  </metadata>
  <g
     inkscape:label="Ebene 1"
     inkscape:groupmode="layer"
     id="layer1"
     transform="translate(0,-442.36218)">
    <path
       style="fill:#b3b3b3;fill-opacity:1;stroke:none"
       d="m 0,442.36218 0,164.50085 c 66.159886,33.1831 143.15491,9.6102 194.125,0 50.65188,-10.94776 79.66272,-17.17662 114.40625,-26.82475 52.84973,-10.57304 100.36887,-11.28928 154.1875,-10.56595 113.8126,7.82311 214.54789,19.89069 321.09375,21.35961 99.37502,-4.124 176.95467,-25.90903 266.1563,-46.27155 89.8984,-24.59788 161.3713,-23.77583 224.625,-1.77619 85.0728,25.70037 136.227,54.93667 201.4374,58.75032 129.4907,-0.42647 257.0563,-98.96205 387.0313,-156.5764 l 1.9375,0.3188 7.5625,-2.91474 -1872.5625,0 z"
       id="path5721" />
    <path
       id="path5719"
       d="m 0,447.36218 0,139.14079 c 66.159886,28.06746 143.15491,8.12865 194.125,0 50.65188,-9.26002 79.66272,-14.52861 114.40625,-22.68935 52.84973,-8.94306 100.36887,-9.54888 154.1875,-8.93707 113.8126,6.61708 214.54789,16.82427 321.09375,18.06674 99.37502,-3.48823 176.95467,-21.9148 266.1563,-39.13816 89.8984,-20.80578 161.3713,-20.11046 224.625,-1.50236 85.0728,21.7383 136.227,46.46743 201.4374,49.69314 129.4907,-0.36072 257.0563,-83.70569 387.0313,-132.43799 l 1.9375,0.26965 7.5625,-2.46539 -1872.5625,0 z"
       style="fill:#ff8800;fill-opacity:1;stroke:none" />
    <path
       style="opacity:0.63636361;fill:#ffac4c;fill-opacity:1;stroke:none"
       d="m 0,0 0,112.875 c 66.159886,22.76913 143.15491,6.5942 194.125,0 50.65188,-7.51199 79.66272,-11.78602 114.40625,-18.40625 52.84973,-7.254865 100.36887,-7.746329 154.1875,-7.25 113.8126,5.367962 214.54789,13.64833 321.09375,14.65625 99.37502,-2.829749 176.95467,-17.77791 266.1563,-31.75 89.8984,-16.878246 161.3713,-16.314178 224.625,-1.21875 85.0728,17.634726 136.227,37.69571 201.4374,40.3125 129.4907,-0.29263 257.0563,-67.904459 387.0313,-107.4375 L 1865,2 1872.5625,0 0,0 z"
       transform="translate(0,452.36218)"
       id="rect4805" />
    <g
       id="g5693"
       transform="matrix(0.82971208,0,0,0.82971208,12.784085,465.51079)">
      <rect
         transform="translate(-5.1197522e-6,0)"
         y="15.6297"
         x="78.611885"
         height="43.405334"
         width="178.92644"
         id="rect3094"
         style="fill:#ffffff;fill-opacity:1;stroke:none" />
      <rect
         id="rect236"
         height="35.330002"
         width="184.267"
         y="52.087002"
         x="73.512001"
         style="fill:#f7931e" />
      <g
         id="g238">
        <path
           id="path240"
           d="M 257.882,87.077 H 77.959 c -6.097,3.639 -13.221,5.734 -20.84,5.734 -22.492,0 -40.727,-18.229 -40.727,-40.723 0,-22.494 18.234,-40.724 40.727,-40.724 6.867,0 13.331,1.705 19.006,4.705 h 181.757 v 71.008 z"
           style="fill:none;stroke:#000000;stroke-width:5.0999999" />
        <path
           id="path242"
           d="m 116.36,24.528 h 6.784 v 11.9 c 0,2.499 -0.221,4.401 -0.666,5.704 -0.442,1.304 -1.335,2.409 -2.673,3.316 -1.341,0.903 -3.056,1.357 -5.148,1.357 -2.212,0 -3.925,-0.299 -5.14,-0.896 -1.215,-0.598 -2.153,-1.472 -2.817,-2.623 -0.661,-1.149 -1.053,-2.571 -1.172,-4.266 l 6.469,-0.881 c 0.01,0.966 0.095,1.684 0.254,2.151 0.16,0.468 0.429,0.847 0.807,1.136 0.259,0.189 0.628,0.284 1.106,0.284 0.757,0 1.311,-0.281 1.666,-0.844 0.353,-0.563 0.53,-1.512 0.53,-2.845 V 24.528 z" />
        <path
           id="path244"
           d="m 142.217,24.528 h 6.754 v 13.051 c 0,1.295 -0.203,2.517 -0.606,3.666 -0.403,1.148 -1.035,2.154 -1.897,3.015 -0.862,0.862 -1.767,1.468 -2.713,1.816 -1.313,0.486 -2.892,0.73 -4.735,0.73 -1.064,0 -2.229,-0.075 -3.488,-0.225 -1.261,-0.149 -2.314,-0.444 -3.162,-0.889 -0.847,-0.442 -1.62,-1.071 -2.322,-1.889 -0.702,-0.817 -1.183,-1.657 -1.442,-2.522 -0.419,-1.394 -0.628,-2.628 -0.628,-3.703 v -13.05 h 6.754 v 13.361 c 0,1.194 0.332,2.126 0.994,2.799 0.662,0.672 1.582,1.008 2.758,1.008 1.165,0 2.078,-0.331 2.741,-0.992 0.662,-0.661 0.994,-1.602 0.994,-2.814 V 24.528 z" />
      </g>
      <polygon
         id="polygon246"
         points="174.75,24.528 174.75,46.432 168.373,46.432 160.167,34.404 160.167,46.432 153.802,46.432 153.802,24.528 160.125,24.528 168.373,36.645 168.373,24.528 " />
      <g
         id="g248">
        <path
           id="path250"
           d="m 190.566,38.499 v -4.557 h 10.459 v 9.338 c -2.002,1.365 -3.773,2.295 -5.311,2.786 -1.541,0.495 -3.365,0.739 -5.478,0.739 -2.599,0 -4.719,-0.442 -6.356,-1.328 -1.641,-0.888 -2.908,-2.207 -3.812,-3.961 -0.899,-1.753 -1.353,-3.765 -1.353,-6.035 0,-2.392 0.494,-4.47 1.48,-6.239 0.986,-1.767 2.43,-3.11 4.333,-4.026 1.484,-0.707 3.481,-1.061 5.991,-1.061 2.421,0 4.23,0.219 5.432,0.658 1.199,0.438 2.195,1.118 2.989,2.037 0.79,0.924 1.386,2.091 1.784,3.506 l -6.529,1.165 c -0.27,-0.827 -0.724,-1.459 -1.367,-1.897 -0.642,-0.438 -1.462,-0.658 -2.457,-0.658 -1.484,0 -2.666,0.516 -3.551,1.548 -0.879,1.029 -1.32,2.661 -1.32,4.893 0,2.371 0.444,4.063 1.338,5.08 0.89,1.016 2.133,1.523 3.727,1.523 0.757,0 1.479,-0.108 2.167,-0.329 0.687,-0.219 1.474,-0.592 2.36,-1.119 v -2.063 h -4.526 z" />
      </g>
      <polygon
         id="polygon252"
         points="223.474,29.206 212.12,29.206 212.12,32.686 222.654,32.686 222.654,37.153 212.12,37.153 212.12,41.472 223.802,41.472 223.802,46.432 205.336,46.432 205.336,24.528 223.474,24.528 " />
      <g
         id="g254">
        <path
           id="path256"
           d="m 114.014,68.037 h 1.659 c 1.305,0 2.221,-0.227 2.749,-0.68 0.528,-0.454 0.792,-1.034 0.792,-1.741 0,-0.688 -0.229,-1.269 -0.687,-1.746 -0.459,-0.479 -1.32,-0.719 -2.585,-0.719 h -1.928 v 4.886 z M 107.216,58.7 h 11.251 c 2.45,0 4.286,0.581 5.505,1.745 1.222,1.166 1.831,2.826 1.831,4.979 0,2.211 -0.666,3.938 -1.994,5.183 -1.331,1.245 -3.36,1.869 -6.089,1.869 h -3.706 v 8.128 h -6.798 V 58.7 z"
           style="fill:#ffffff" />
      </g>
      <rect
         id="rect258"
         height="21.903"
         width="6.783"
         y="58.700001"
         x="128.08299"
         style="fill:#ffffff" />
      <g
         id="g260">
        <path
           id="path262"
           d="m 146.304,67.575 h 2.854 c 0.31,0 0.908,-0.1 1.793,-0.3 0.449,-0.089 0.815,-0.317 1.098,-0.687 0.285,-0.368 0.427,-0.793 0.427,-1.272 0,-0.707 -0.224,-1.248 -0.672,-1.627 -0.448,-0.378 -1.29,-0.566 -2.524,-0.566 h -2.975 v 4.452 z m -6.798,13.028 V 58.7 h 11.28 c 2.093,0 3.69,0.179 4.797,0.537 1.105,0.358 1.996,1.022 2.675,1.994 0.677,0.972 1.015,2.153 1.015,3.547 0,1.217 -0.258,2.266 -0.775,3.146 -0.519,0.882 -1.232,1.596 -2.139,2.144 -0.578,0.349 -1.371,0.638 -2.377,0.866 0.807,0.271 1.393,0.54 1.762,0.81 0.25,0.179 0.608,0.563 1.082,1.149 0.473,0.59 0.787,1.043 0.947,1.362 l 3.278,6.348 h -7.647 l -3.617,-6.693 c -0.459,-0.866 -0.867,-1.432 -1.226,-1.69 -0.489,-0.338 -1.042,-0.508 -1.659,-0.508 h -0.598 v 8.892 h -6.798 z"
           style="fill:#ffffff" />
      </g>
      <path
         id="path264"
         d="m 175.281,72.25 -2.418,-7.873 -2.394,7.873 h 4.812 z m 1.404,4.738 H 169 l -1.067,3.616 h -6.912 L 169.254,58.7 h 7.383 l 8.231,21.904 h -7.088 l -1.095,-3.616 z"
         style="fill:#ffffff" />
      <polygon
         id="polygon266"
         points="188.289,64.108 181.385,64.108 181.385,58.7 201.958,58.7 201.958,64.108 195.056,64.108 195.056,80.603 188.289,80.603 "
         style="fill:#ffffff" />
      <polygon
         id="polygon268"
         points="222.381,63.375 211.025,63.375 211.025,66.857 221.56,66.857 221.56,71.324 211.025,71.324 211.025,75.643 222.709,75.643 222.709,80.603 204.242,80.603 204.242,58.7 222.381,58.7 "
         style="fill:#ffffff" />
      <polygon
         id="polygon270"
         points="247.349,58.7 247.349,80.603 240.968,80.603 232.765,68.576 232.765,80.603 226.4,80.603 226.4,58.7 232.72,58.7 240.968,70.816 240.968,58.7 "
         style="fill:#ffffff" />
      <g
         id="g272">
        <circle
           id="circle274"
           r="44.029999"
           cy="49.306"
           cx="53.118999"
           sodipodi:cx="53.118999"
           sodipodi:cy="49.306"
           sodipodi:rx="44.029999"
           sodipodi:ry="44.029999"
           style="fill:#ffffff;stroke:#000000;stroke-width:5.0999999"
           d="m 97.148998,49.306 c 0,24.317097 -19.712902,44.029999 -44.029999,44.029999 -24.317096,0 -44.0299983,-19.712902 -44.0299983,-44.029999 0,-24.317097 19.7129023,-44.029999 44.0299983,-44.029999 24.317097,0 44.029999,19.712902 44.029999,44.029999 z" />
        <path
           id="path276"
           d="m 84.502,16.112 c 0,0 -3.642,0.05 -6.115,0.05 -16.329,0 -28.325,1.259 -44.713,11.206 C 18.73,36.44 9.355,50.739 9.355,50.739 c 0,0 0.029,1.606 0.221,3.335 0.557,5.003 1.782,8.83 2.947,11.769 2.609,6.593 7.036,11.902 7.036,11.902 0,0 0.839,1.637 1.327,6.376 0.773,7.51 -9.16,19.032 -9.16,19.032 0,0 0.983,-5.056 -3.203,-12.479 C 6.094,86.366 4.106,80.072 4.548,75.434 5.041,70.267 6.646,66.269 7.088,63.397 7.484,60.821 6.54,58.578 6.54,58.578 c 0,0 -4.225,-2.254 -3.98,-6.887 0.221,-4.196 3.865,-5.678 3.865,-5.678 0,0 0.512,-23.483 21.225,-36.595 C 38.465,2.57 55.431,0.016 68.859,5.605 78.32,9.546 84.502,16.112 84.502,16.112 z"
           stroke-miterlimit="10"
           style="stroke:#000000;stroke-width:5.0999999;stroke-linecap:round;stroke-miterlimit:10" />
        <path
           id="path278"
           d="m 40.065,23.792 h 3.243 v 5.237 c 2.877,-0.649 6.573,-1.061 11.253,-1.061 12.517,0 21.988,3.995 24.14,15.269 2.005,10.489 -4.125,13.642 -12.896,16.125 -6.931,1.958 -19.024,2.438 -22.268,6.487 -3.243,4.048 -3.383,9.182 -2.194,13.771 -1.674,-4.207 -2.555,-6.951 -2.555,-10.303 0,-1.817 0.329,-3.825 1.275,-5.697 V 31.627 c -1.206,-0.078 -2.349,-0.057 -3.367,0.029 0.857,-0.597 1.963,-1.173 3.367,-1.689 v -6.175 h 0.002 z m 3.244,8.278 v 27.761 c 0.429,-0.316 0.897,-0.614 1.409,-0.889 C 51.79,55.09 54.443,51.614 54.333,45.224 54.185,36.74 48.726,33.24 43.309,32.07" />
        <path
           id="path280"
           d="m 40.065,23.792 h 3.243 v 5.237 c 2.877,-0.649 6.573,-1.061 11.253,-1.061 12.517,0 21.988,3.995 24.14,15.269 2.005,10.489 -4.125,13.642 -12.896,16.125 -6.931,1.958 -19.024,2.438 -22.268,6.487 -3.243,4.048 -3.383,9.182 -2.194,13.771 -1.674,-4.207 -2.555,-6.951 -2.555,-10.303 0,-1.817 0.329,-3.825 1.275,-5.697 V 31.627 c -1.206,-0.078 -2.349,-0.057 -3.367,0.029 0.857,-0.597 1.963,-1.173 3.367,-1.689 v -6.175 h 0.002 z m 3.244,8.278 v 27.761 c 0.429,-0.316 0.897,-0.614 1.409,-0.889 C 51.79,55.09 54.443,51.614 54.333,45.224 54.185,36.74 48.726,33.24 43.309,32.07 z"
           stroke-miterlimit="10"
           style="fill:none;stroke:#000000;stroke-width:0.85000002;stroke-linecap:round;stroke-miterlimit:10" />
      </g>
    </g>
    <path
       id="path12357"
       style="fill:#ff8800;fill-opacity:1;fill-rule:evenodd;stroke:none"
       d="m 573.91136,470.60509 -61.42529,44.27536 -0.0564,0.61137 21.37969,15.53681 -3.28242,2.16345 12.32203,13.46809 78.25467,7.21918 0.564,-6.11365 0.78055,-1.77769 3.83739,-1.4957 2.22889,-4.11035 0.12183,-8.00414 0.282,-3.05682 1.56113,-3.55538 -21.57819,-33.4356 2.39809,-5.94444 0.0564,-0.61137 -6.22645,0.65873 -6.98894,-11.12639 -1.16633,-0.72416 -21.83993,-3.86449 -1.22273,-0.11281 z m -0.0564,0.61137 -1.128,12.22728 -13.73201,1.81604 -0.0564,0.61136 c -3.00945,5.88805 -3.68625,13.22442 -0.58206,19.67647 l -0.11281,1.22273 c -2.95305,5.27668 -2.29432,11.50313 0.31131,16.67604 l -1.22273,-0.1128 -2.67105,2.21986 c -9.42537,-18.1334 -7.29122,-34.58384 3.33662,-42.85192 9.96006,-7.71311 15.85714,-11.48506 15.85714,-11.48506 z m 1.22272,0.1128 21.83994,3.86449 -1.12801,12.22729 -11.89792,1.98522 -0.0564,0.61137 0.61136,0.0564 -2.62369,8.38991 c -2.66202,-4.56156 0.40384,-11.06097 3.24409,-15.11492 l 0.0564,-0.61136 -10.83987,0.54141 0.7941,-11.94981 z m 23.00627,4.58865 6.43397,10.45863 -7.1717,0.87982 0.73773,-11.33845 z m -15.51875,7.81687 -8.53543,2.29543 0.141,-1.52841 8.39443,-0.76702 z m 27.4832,2.84368 -3.80918,1.19001 -0.55497,-0.66777 4.36415,-0.52224 z m -5.00371,0.77153 0.55496,0.66776 -8.50722,1.98975 0.14099,-1.52842 7.81127,-1.12909 z m -32.43053,-2.68351 -0.1128,1.22273 c -3.16961,0.94072 -6.89421,1.2137 -9.83823,-0.29103 l 9.95103,-0.9317 z m 23.06266,3.97728 -0.1128,1.22273 -8.00414,-0.12183 8.11694,-1.1009 z m 13.16802,4.29762 21.02323,32.76783 -14.89835,1.09187 -4.56155,2.66201 c -1.88146,-6.33924 0.018,-13.56282 2.41616,-19.50726 l 0.61136,0.0565 0.11279,-1.22274 -0.61135,-0.0564 c -3.88476,-4.67434 -5.87902,-9.79086 -4.09229,-15.79171 z m -28.14084,10.96844 -7.44917,0.54593 0.0564,-0.61137 7.39277,0.0654 z m -9.22686,-0.23464 -0.0846,0.91705 -11.20196,1.12458 c 3.37196,-2.26322 8.16398,-2.09312 11.28656,-2.04163 z m 10.36499,1.26448 -8.81291,1.96155 0.11281,-1.22272 8.7001,-0.73883 z m -10.5624,0.8753 -0.141,1.5284 c -3.11322,0.32938 -6.78141,-0.009 -9.78182,-0.90238 l 9.92282,-0.62602 z m 39.15555,3.30391 -13.61923,0.5933 0.11279,-1.22273 c 4.36415,-0.52226 8.9212,0.20643 13.50644,0.62943 z m 1.16633,0.72416 c -4.81084,2.02246 -9.84276,3.09967 -15.06756,2.92596 l 0.1692,-1.8341 14.89836,-1.09186 z m -17.17462,-0.96783 -0.0846,0.91704 -6.25465,0.96443 6.33924,-1.88147 z m -11.17376,0.8189 1.05353,1.9469 -2.2853,4.72171 c 0,0 -0.21656,-4.33595 1.23177,-6.66861 z m 10.97636,1.32088 -0.141,1.52841 -7.94774,-0.73319 8.08874,-0.79522 z m -40.17977,14.48207 c -5.45491,5.66244 -11.43207,6.96073 -18.18077,3.25531 l -22.16026,-13.75911 c 0,0 2.0597,-2.27627 4.61795,-3.27339 14.15502,-6.40127 25.95028,6.09338 35.72308,13.77719 z m 16.23388,-2.2018 -0.1128,1.22273 -8.00414,-0.12182 c 2.53007,-0.69146 5.3376,-1.04902 8.11694,-1.10091 z m 1.8341,0.16921 8.5027,1.40095 -8.6155,-0.17823 0.1128,-1.22272 z m 8.44631,2.01232 c 0.0519,2.77934 1.41851,6.80172 1.76865,7.56197 l -0.11279,1.22273 11.06096,0.40383 -0.6768,7.33639 c -8.6719,0.43313 -11.94529,-4.18483 -14.32532,-11.80321 l -3.61179,-0.94975 -0.38576,-2.50186 -2.44546,-0.2256 0.1128,-1.22273 8.61551,0.17823 z m -10.44961,-0.34743 -0.0564,0.61136 -3.94566,-0.67228 4.00207,0.0609 z m 23.44843,6.47914 -0.1692,1.8341 -8.00414,-0.12184 8.17334,-1.71226 z m 1.83408,0.1692 10.33681,1.57017 -10.506,0.26393 0.16919,-1.8341 z m 10.22401,2.79289 c -0.6204,6.72501 -5.09735,8.46999 -11.18281,7.60032 l 0.6768,-7.33639 10.50601,-0.26393 z" />
  </g>
</svg>
